<?xml version="1.0" encoding="utf-8"?><svg viewBox="0 0 188 204" xmlns="http://www.w3.org/2000/svg" xmlns:xlink="http://www.w3.org/1999/xlink"><style>:root>svg{display:none}:root>svg:target{display:block}</style><svg viewBox="0 0 188 204" id="bell" xmlns="http://www.w3.org/2000/svg"><path d="M186.07 150.94C180.41 141.2 172 113.73 172 78a78 78 0 0 0-156 0c0 35.74-8.42 63.2-14.08 72.94A14.002 14.002 0 0 0 14 172h42.48a37.998 37.998 0 0 0 62.102 22.817A38.003 38.003 0 0 0 131.48 172H174a13.998 13.998 0 0 0 13.97-14.059 13.996 13.996 0 0 0-1.91-7.001h.01ZM94 192a26.003 26.003 0 0 1-25.29-20h50.58A26 26 0 0 1 94 192Zm81.71-33a1.907 1.907 0 0 1-1.7 1H14a1.902 1.902 0 0 1-1.7-1 2 2 0 0 1 0-2C19.87 144 28 113.69 28 78a66 66 0 1 1 132 0c0 35.68 8.14 65.95 15.71 79a2.006 2.006 0 0 1 0 2Z"/></svg><svg viewBox="0 0 12 16" id="bookmark" xmlns="http://www.w3.org/2000/svg"><path d="M0 2a2 2 0 0 1 2-2h8a2 2 0 0 1 2 2v13.5a.5.5 0 0 1-.777.416L6 13.101.777 15.916A.5.5 0 0 1 0 15.5V2Zm2-1a1 1 0 0 0-1 1v12.566l4.723-2.482a.5.5 0 0 1 .554 0L11 14.566V2a1 1 0 0 0-1-1H2Z"/></svg><svg viewBox="0 0 22 22" id="calendar" xmlns="http://www.w3.org/2000/svg"><path d="M18.75 0A3.25 3.25 0 0 1 22 3.25v15.5A3.25 3.25 0 0 1 18.75 22H3.25A3.25 3.25 0 0 1 0 18.75V3.25A3.25 3.25 0 0 1 3.25 0h15.5Zm1.75 6.503h-19V18.75c0 .966.784 1.75 1.75 1.75h15.5a1.75 1.75 0 0 0 1.75-1.75V6.503ZM5.749 14.501a1.25 1.25 0 1 1 0 2.5 1.25 1.25 0 0 1 0-2.5Zm5.254 0a1.25 1.25 0 1 1 0 2.5 1.25 1.25 0 0 1 0-2.5Zm-5.254-5a1.25 1.25 0 1 1 0 2.5 1.25 1.25 0 0 1 0-2.5Zm5.254 0a1.25 1.25 0 1 1 0 2.5 1.25 1.25 0 0 1 0-2.5Zm5.255 0a1.25 1.25 0 1 1 0 2.5 1.25 1.25 0 0 1 0-2.5ZM18.75 1.5H3.25A1.75 1.75 0 0 0 1.5 3.25v1.753h19V3.25a1.75 1.75 0 0 0-1.75-1.75Z"/></svg><svg viewBox="0 0 20 19" id="favorite" xmlns="http://www.w3.org/2000/svg"><path d="m10 19-1.45-1.3c-1.683-1.517-3.075-2.825-4.175-3.925-1.1-1.1-1.975-2.088-2.625-2.963C1.1 9.937.646 9.132.388 8.4A6.745 6.745 0 0 1 0 6.15c0-1.567.525-2.875 1.575-3.925C2.625 1.175 3.933.65 5.5.65c.867 0 1.692.183 2.475.55A5.93 5.93 0 0 1 10 2.75a5.93 5.93 0 0 1 2.025-1.55A5.769 5.769 0 0 1 14.5.65c1.567 0 2.875.525 3.925 1.575C19.475 3.275 20 4.583 20 6.15c0 .767-.129 1.517-.387 2.25-.258.733-.712 1.537-1.363 2.412-.65.875-1.526 1.862-2.625 2.963-1.1 1.1-2.491 2.409-4.175 3.925L10 19Zm0-2.7c1.6-1.433 2.917-2.662 3.95-3.687 1.033-1.025 1.85-1.916 2.45-2.675.6-.759 1.017-1.434 1.25-2.026.233-.592.35-1.18.35-1.762 0-1-.333-1.833-1-2.5s-1.5-1-2.5-1c-.783 0-1.508.22-2.175.662C11.658 3.753 11.2 4.316 10.95 5h-1.9c-.25-.683-.708-1.246-1.375-1.687A3.869 3.869 0 0 0 5.5 2.65c-1 0-1.833.333-2.5 1s-1 1.5-1 2.5c0 .583.117 1.17.35 1.763.233.592.65 1.267 1.25 2.025s1.417 1.65 2.45 2.675A108.542 108.542 0 0 0 10 16.3Z"/></svg><svg viewBox="0 0 18 20" id="home" xmlns="http://www.w3.org/2000/svg"><path d="M3.133 19C1.955 19 1 18.02 1 16.81V8.008c0-.665.295-1.295.8-1.71L7.667 1.48a2.09 2.09 0 0 1 2.666 0l5.866 4.818c.506.415.801 1.045.801 1.71v8.802c0 1.21-.955 2.19-2.133 2.19H3.133Z"/><path d="M6.5 19v-5.5a2 2 0 0 1 2-2h1a2 2 0 0 1 2 2V19"/></svg><svg viewBox="0 0 20 18" id="logout" xmlns="http://www.w3.org/2000/svg"><path d="M12 5V3a2 2 0 0 0-2-2H3a2 2 0 0 0-2 2v12a2 2 0 0 0 2 2h7a2 2 0 0 0 2-2v-2M7 9h12m0 0-3-3m3 3-3 3"/></svg><svg viewBox="0 0 20 18" id="movie" xmlns="http://www.w3.org/2000/svg"><path d="M16 8c0-.959-.68-1.761-1.581-1.954C14.779 5.445 15 4.75 15 4c0-2.206-1.794-4-4-4-1.517 0-2.821.857-3.5 2.104C6.821.857 5.517 0 4 0 1.794 0 0 1.794 0 4c0 .902.312 1.727.817 2.396A1.994 1.994 0 0 0 0 8v8c0 1.103.897 2 2 2h12c1.103 0 2-.897 2-2v-2.638l4 2v-7l-4 2V8Zm-5-6c1.103 0 2 .897 2 2s-.897 2-2 2-2-.897-2-2 .897-2 2-2ZM4 2c1.103 0 2 .897 2 2s-.897 2-2 2-2-.897-2-2 .897-2 2-2ZM2 16V8h12l.002 8H2Z"/></svg><svg viewBox="0 0 19 20" id="play" xmlns="http://www.w3.org/2000/svg"><path d="M17.409 7.353a2.998 2.998 0 0 1 0 5.294L4.597 19.614C2.534 20.737 0 19.277 0 16.968V3.033C0 .723 2.534-.736 4.597.385l12.812 6.968Z"/></svg><svg viewBox="0 0 20 20" id="search" xmlns="http://www.w3.org/2000/svg"><path d="m19 19-4.343-4.343m0 0A8 8 0 1 0 3.344 3.344a8 8 0 0 0 11.313 11.313Z"/></svg><svg viewBox="0 0 22 20" id="serials" xmlns="http://www.w3.org/2000/svg"><path d="M6 19h10M9 5.75a.75.75 0 0 1 1.142-.638l3.664 2.249a.75.75 0 0 1 0 1.278l-3.664 2.25A.749.749 0 0 1 9 10.249v-4.5Z"/><path d="M19 1H3a2 2 0 0 0-2 2v10a2 2 0 0 0 2 2h16a2 2 0 0 0 2-2V3a2 2 0 0 0-2-2Z"/></svg><svg viewBox="0 0 20 20" id="share" xmlns="http://www.w3.org/2000/svg"><path d="m6.7 8.7 6.6-3.4m-6.6 6 6.6 3.4M1 10a3 3 0 1 0 6 0 3 3 0 0 0-6 0Zm12-6a3 3 0 1 0 6 0 3 3 0 0 0-6 0Zm0 12a3 3 0 1 0 6 0 3 3 0 0 0-6 0Z"/></svg><svg viewBox="0 0 20 19" id="star" xmlns="http://www.w3.org/2000/svg"><path d="m3.825 19 1.625-7.025L0 7.25l7.2-.625L10 0l2.8 6.625 7.2.625-5.45 4.725L16.175 19 10 15.275 3.825 19Z"/></svg></svg>